<svg xmlns="http://www.w3.org/2000/svg" viewBox="0 0 2400 2400" width="2400" height="2400">
<rect width="2400" height="2400" fill="#F7FBFC"/>
<path d="M-80 250 L220 140 L460 260 L760 95 L1060 258 L1380 125 L1660 250 L1980 100 L2480 270" fill="none" stroke="#213241" stroke-width="18" opacity="0.10"/>
<path d="M-80 312 L260 224 L560 328 L920 198 L1240 320 L1600 216 L1960 324 L2480 232" fill="none" stroke="#DCECF5" stroke-width="20" opacity="0.12"/>
<path d="M-80 510 L220 400 L460 520 L760 355 L1060 518 L1380 385 L1660 510 L1980 360 L2480 530" fill="none" stroke="#213241" stroke-width="18" opacity="0.10"/>
<path d="M-80 572 L260 484 L560 588 L920 458 L1240 580 L1600 476 L1960 584 L2480 492" fill="none" stroke="#DCECF5" stroke-width="20" opacity="0.12"/>
<path d="M-80 770 L220 660 L460 780 L760 615 L1060 778 L1380 645 L1660 770 L1980 620 L2480 790" fill="none" stroke="#213241" stroke-width="18" opacity="0.10"/>
<path d="M-80 832 L260 744 L560 848 L920 718 L1240 840 L1600 736 L1960 844 L2480 752" fill="none" stroke="#DCECF5" stroke-width="20" opacity="0.12"/>
<path d="M-80 1030 L220 920 L460 1040 L760 875 L1060 1038 L1380 905 L1660 1030 L1980 880 L2480 1050" fill="none" stroke="#213241" stroke-width="18" opacity="0.10"/>
<path d="M-80 1092 L260 1004 L560 1108 L920 978 L1240 1100 L1600 996 L1960 1104 L2480 1012" fill="none" stroke="#DCECF5" stroke-width="20" opacity="0.12"/>
<path d="M-80 1290 L220 1180 L460 1300 L760 1135 L1060 1298 L1380 1165 L1660 1290 L1980 1140 L2480 1310" fill="none" stroke="#213241" stroke-width="18" opacity="0.10"/>
<path d="M-80 1352 L260 1264 L560 1368 L920 1238 L1240 1360 L1600 1256 L1960 1364 L2480 1272" fill="none" stroke="#DCECF5" stroke-width="20" opacity="0.12"/>
<path d="M-80 1550 L220 1440 L460 1560 L760 1395 L1060 1558 L1380 1425 L1660 1550 L1980 1400 L2480 1570" fill="none" stroke="#213241" stroke-width="18" opacity="0.10"/>
<path d="M-80 1612 L260 1524 L560 1628 L920 1498 L1240 1620 L1600 1516 L1960 1624 L2480 1532" fill="none" stroke="#DCECF5" stroke-width="20" opacity="0.12"/>
<path d="M-80 1810 L220 1700 L460 1820 L760 1655 L1060 1818 L1380 1685 L1660 1810 L1980 1660 L2480 1830" fill="none" stroke="#213241" stroke-width="18" opacity="0.10"/>
<path d="M-80 1872 L260 1784 L560 1888 L920 1758 L1240 1880 L1600 1776 L1960 1884 L2480 1792" fill="none" stroke="#DCECF5" stroke-width="20" opacity="0.12"/>
<path d="M-80 2070 L220 1960 L460 2080 L760 1915 L1060 2078 L1380 1945 L1660 2070 L1980 1920 L2480 2090" fill="none" stroke="#213241" stroke-width="18" opacity="0.10"/>
<path d="M-80 2132 L260 2044 L560 2148 L920 2018 L1240 2140 L1600 2036 L1960 2144 L2480 2052" fill="none" stroke="#DCECF5" stroke-width="20" opacity="0.12"/>
<path d="M-80 2330 L220 2220 L460 2340 L760 2175 L1060 2338 L1380 2205 L1660 2330 L1980 2180 L2480 2350" fill="none" stroke="#213241" stroke-width="18" opacity="0.10"/>
<path d="M-80 2392 L260 2304 L560 2408 L920 2278 L1240 2400 L1600 2296 L1960 2404 L2480 2312" fill="none" stroke="#DCECF5" stroke-width="20" opacity="0.12"/>
</svg>