<svg xmlns="http://www.w3.org/2000/svg" viewBox="0 0 2400 2400" width="2400" height="2400">
<rect width="2400" height="2400" fill="#F8F4EA"/>
<path d="M242 218 C 190 248, 198 320, 264 330 C 222 360, 136 316, 152 244 C 166 184, 222 166, 242 218 Z" fill="#9CC7F2" opacity="0.18"/>
<circle cx="643" cy="913" r="34" fill="#F8D85E" opacity="0.16"/>
<circle cx="681" cy="893" r="44" fill="#F8D85E" opacity="0.16"/>
<circle cx="725" cy="917" r="30" fill="#F8D85E" opacity="0.16"/>
<rect x="611" y="913" width="138" height="34" rx="17" fill="#F8D85E" opacity="0.16"/>
<circle cx="1110" cy="1554" r="34" fill="#9ED9B4" opacity="0.16"/>
<circle cx="1148" cy="1534" r="44" fill="#9ED9B4" opacity="0.16"/>
<circle cx="1192" cy="1558" r="30" fill="#9ED9B4" opacity="0.16"/>
<rect x="1078" y="1554" width="138" height="34" rx="17" fill="#9ED9B4" opacity="0.16"/>
<path d="M1643 2141 C 1591 2171, 1599 2243, 1665 2253 C 1623 2283, 1537 2239, 1553 2167 C 1567 2107, 1623 2089, 1643 2141 Z" fill="#9CC7F2" opacity="0.18"/>
<circle cx="2044" cy="436" r="34" fill="#F8D85E" opacity="0.16"/>
<circle cx="2082" cy="416" r="44" fill="#F8D85E" opacity="0.16"/>
<circle cx="2126" cy="440" r="30" fill="#F8D85E" opacity="0.16"/>
<rect x="2012" y="436" width="138" height="34" rx="17" fill="#F8D85E" opacity="0.16"/>
<circle cx="111" cy="1077" r="34" fill="#9ED9B4" opacity="0.16"/>
<circle cx="149" cy="1057" r="44" fill="#9ED9B4" opacity="0.16"/>
<circle cx="193" cy="1081" r="30" fill="#9ED9B4" opacity="0.16"/>
<rect x="79" y="1077" width="138" height="34" rx="17" fill="#9ED9B4" opacity="0.16"/>
<path d="M644 1664 C 592 1694, 600 1766, 666 1776 C 624 1806, 538 1762, 554 1690 C 568 1630, 624 1612, 644 1664 Z" fill="#9CC7F2" opacity="0.18"/>
<circle cx="1045" cy="2359" r="34" fill="#F8D85E" opacity="0.16"/>
<circle cx="1083" cy="2339" r="44" fill="#F8D85E" opacity="0.16"/>
<circle cx="1127" cy="2363" r="30" fill="#F8D85E" opacity="0.16"/>
<rect x="1013" y="2359" width="138" height="34" rx="17" fill="#F8D85E" opacity="0.16"/>
<circle cx="1512" cy="600" r="34" fill="#9ED9B4" opacity="0.16"/>
<circle cx="1550" cy="580" r="44" fill="#9ED9B4" opacity="0.16"/>
<circle cx="1594" cy="604" r="30" fill="#9ED9B4" opacity="0.16"/>
<rect x="1480" y="600" width="138" height="34" rx="17" fill="#9ED9B4" opacity="0.16"/>
<path d="M2045 1187 C 1993 1217, 2001 1289, 2067 1299 C 2025 1329, 1939 1285, 1955 1213 C 1969 1153, 2025 1135, 2045 1187 Z" fill="#9CC7F2" opacity="0.18"/>
<circle cx="46" cy="1882" r="34" fill="#F8D85E" opacity="0.16"/>
<circle cx="84" cy="1862" r="44" fill="#F8D85E" opacity="0.16"/>
<circle cx="128" cy="1886" r="30" fill="#F8D85E" opacity="0.16"/>
<rect x="14" y="1882" width="138" height="34" rx="17" fill="#F8D85E" opacity="0.16"/>
<circle cx="513" cy="123" r="34" fill="#9ED9B4" opacity="0.16"/>
<circle cx="551" cy="103" r="44" fill="#9ED9B4" opacity="0.16"/>
<circle cx="595" cy="127" r="30" fill="#9ED9B4" opacity="0.16"/>
<rect x="481" y="123" width="138" height="34" rx="17" fill="#9ED9B4" opacity="0.16"/>
<path d="M1046 710 C 994 740, 1002 812, 1068 822 C 1026 852, 940 808, 956 736 C 970 676, 1026 658, 1046 710 Z" fill="#9CC7F2" opacity="0.18"/>
<circle cx="1447" cy="1405" r="34" fill="#F8D85E" opacity="0.16"/>
<circle cx="1485" cy="1385" r="44" fill="#F8D85E" opacity="0.16"/>
<circle cx="1529" cy="1409" r="30" fill="#F8D85E" opacity="0.16"/>
<rect x="1415" y="1405" width="138" height="34" rx="17" fill="#F8D85E" opacity="0.16"/>
<circle cx="1914" cy="2046" r="34" fill="#9ED9B4" opacity="0.16"/>
<circle cx="1952" cy="2026" r="44" fill="#9ED9B4" opacity="0.16"/>
<circle cx="1996" cy="2050" r="30" fill="#9ED9B4" opacity="0.16"/>
<rect x="1882" y="2046" width="138" height="34" rx="17" fill="#9ED9B4" opacity="0.16"/>
<path d="M47 233 C -5 263, 3 335, 69 345 C 27 375, -59 331, -43 259 C -29 199, 27 181, 47 233 Z" fill="#9CC7F2" opacity="0.18"/>
<circle cx="448" cy="928" r="34" fill="#F8D85E" opacity="0.16"/>
<circle cx="486" cy="908" r="44" fill="#F8D85E" opacity="0.16"/>
<circle cx="530" cy="932" r="30" fill="#F8D85E" opacity="0.16"/>
<rect x="416" y="928" width="138" height="34" rx="17" fill="#F8D85E" opacity="0.16"/>
<circle cx="915" cy="1569" r="34" fill="#9ED9B4" opacity="0.16"/>
<circle cx="953" cy="1549" r="44" fill="#9ED9B4" opacity="0.16"/>
<circle cx="997" cy="1573" r="30" fill="#9ED9B4" opacity="0.16"/>
<rect x="883" y="1569" width="138" height="34" rx="17" fill="#9ED9B4" opacity="0.16"/>
<path d="M1448 2156 C 1396 2186, 1404 2258, 1470 2268 C 1428 2298, 1342 2254, 1358 2182 C 1372 2122, 1428 2104, 1448 2156 Z" fill="#9CC7F2" opacity="0.18"/>
<circle cx="1849" cy="451" r="34" fill="#F8D85E" opacity="0.16"/>
<circle cx="1887" cy="431" r="44" fill="#F8D85E" opacity="0.16"/>
<circle cx="1931" cy="455" r="30" fill="#F8D85E" opacity="0.16"/>
<rect x="1817" y="451" width="138" height="34" rx="17" fill="#F8D85E" opacity="0.16"/>
<circle cx="2316" cy="1092" r="34" fill="#9ED9B4" opacity="0.16"/>
<circle cx="2354" cy="1072" r="44" fill="#9ED9B4" opacity="0.16"/>
<circle cx="2398" cy="1096" r="30" fill="#9ED9B4" opacity="0.16"/>
<rect x="2284" y="1092" width="138" height="34" rx="17" fill="#9ED9B4" opacity="0.16"/>
<path d="M449 1679 C 397 1709, 405 1781, 471 1791 C 429 1821, 343 1777, 359 1705 C 373 1645, 429 1627, 449 1679 Z" fill="#9CC7F2" opacity="0.18"/>
<circle cx="850" cy="2374" r="34" fill="#F8D85E" opacity="0.16"/>
<circle cx="888" cy="2354" r="44" fill="#F8D85E" opacity="0.16"/>
<circle cx="932" cy="2378" r="30" fill="#F8D85E" opacity="0.16"/>
<rect x="818" y="2374" width="138" height="34" rx="17" fill="#F8D85E" opacity="0.16"/>
<circle cx="1317" cy="615" r="34" fill="#9ED9B4" opacity="0.16"/>
<circle cx="1355" cy="595" r="44" fill="#9ED9B4" opacity="0.16"/>
<circle cx="1399" cy="619" r="30" fill="#9ED9B4" opacity="0.16"/>
<rect x="1285" y="615" width="138" height="34" rx="17" fill="#9ED9B4" opacity="0.16"/>
<path d="M1850 1202 C 1798 1232, 1806 1304, 1872 1314 C 1830 1344, 1744 1300, 1760 1228 C 1774 1168, 1830 1150, 1850 1202 Z" fill="#9CC7F2" opacity="0.18"/>
<circle cx="2251" cy="1897" r="34" fill="#F8D85E" opacity="0.16"/>
<circle cx="2289" cy="1877" r="44" fill="#F8D85E" opacity="0.16"/>
<circle cx="2333" cy="1901" r="30" fill="#F8D85E" opacity="0.16"/>
<rect x="2219" y="1897" width="138" height="34" rx="17" fill="#F8D85E" opacity="0.16"/>
<circle cx="318" cy="138" r="34" fill="#9ED9B4" opacity="0.16"/>
<circle cx="356" cy="118" r="44" fill="#9ED9B4" opacity="0.16"/>
<circle cx="400" cy="142" r="30" fill="#9ED9B4" opacity="0.16"/>
<rect x="286" y="138" width="138" height="34" rx="17" fill="#9ED9B4" opacity="0.16"/>
<path d="M851 725 C 799 755, 807 827, 873 837 C 831 867, 745 823, 761 751 C 775 691, 831 673, 851 725 Z" fill="#9CC7F2" opacity="0.18"/>
<circle cx="1252" cy="1420" r="34" fill="#F8D85E" opacity="0.16"/>
<circle cx="1290" cy="1400" r="44" fill="#F8D85E" opacity="0.16"/>
<circle cx="1334" cy="1424" r="30" fill="#F8D85E" opacity="0.16"/>
<rect x="1220" y="1420" width="138" height="34" rx="17" fill="#F8D85E" opacity="0.16"/>
<circle cx="1719" cy="2061" r="34" fill="#9ED9B4" opacity="0.16"/>
<circle cx="1757" cy="2041" r="44" fill="#9ED9B4" opacity="0.16"/>
<circle cx="1801" cy="2065" r="30" fill="#9ED9B4" opacity="0.16"/>
<rect x="1687" y="2061" width="138" height="34" rx="17" fill="#9ED9B4" opacity="0.16"/>
<path d="M2252 248 C 2200 278, 2208 350, 2274 360 C 2232 390, 2146 346, 2162 274 C 2176 214, 2232 196, 2252 248 Z" fill="#9CC7F2" opacity="0.18"/>
<circle cx="253" cy="943" r="34" fill="#F8D85E" opacity="0.16"/>
<circle cx="291" cy="923" r="44" fill="#F8D85E" opacity="0.16"/>
<circle cx="335" cy="947" r="30" fill="#F8D85E" opacity="0.16"/>
<rect x="221" y="943" width="138" height="34" rx="17" fill="#F8D85E" opacity="0.16"/>
<circle cx="720" cy="1584" r="34" fill="#9ED9B4" opacity="0.16"/>
<circle cx="758" cy="1564" r="44" fill="#9ED9B4" opacity="0.16"/>
<circle cx="802" cy="1588" r="30" fill="#9ED9B4" opacity="0.16"/>
<rect x="688" y="1584" width="138" height="34" rx="17" fill="#9ED9B4" opacity="0.16"/>
<path d="M1253 2171 C 1201 2201, 1209 2273, 1275 2283 C 1233 2313, 1147 2269, 1163 2197 C 1177 2137, 1233 2119, 1253 2171 Z" fill="#9CC7F2" opacity="0.18"/>
<circle cx="1654" cy="466" r="34" fill="#F8D85E" opacity="0.16"/>
<circle cx="1692" cy="446" r="44" fill="#F8D85E" opacity="0.16"/>
<circle cx="1736" cy="470" r="30" fill="#F8D85E" opacity="0.16"/>
<rect x="1622" y="466" width="138" height="34" rx="17" fill="#F8D85E" opacity="0.16"/>
<circle cx="2121" cy="1107" r="34" fill="#9ED9B4" opacity="0.16"/>
<circle cx="2159" cy="1087" r="44" fill="#9ED9B4" opacity="0.16"/>
<circle cx="2203" cy="1111" r="30" fill="#9ED9B4" opacity="0.16"/>
<rect x="2089" y="1107" width="138" height="34" rx="17" fill="#9ED9B4" opacity="0.16"/>
<path d="M254 1694 C 202 1724, 210 1796, 276 1806 C 234 1836, 148 1792, 164 1720 C 178 1660, 234 1642, 254 1694 Z" fill="#9CC7F2" opacity="0.18"/>
<circle cx="655" cy="2389" r="34" fill="#F8D85E" opacity="0.16"/>
<circle cx="693" cy="2369" r="44" fill="#F8D85E" opacity="0.16"/>
<circle cx="737" cy="2393" r="30" fill="#F8D85E" opacity="0.16"/>
<rect x="623" y="2389" width="138" height="34" rx="17" fill="#F8D85E" opacity="0.16"/>
<circle cx="1122" cy="630" r="34" fill="#9ED9B4" opacity="0.16"/>
<circle cx="1160" cy="610" r="44" fill="#9ED9B4" opacity="0.16"/>
<circle cx="1204" cy="634" r="30" fill="#9ED9B4" opacity="0.16"/>
<rect x="1090" y="630" width="138" height="34" rx="17" fill="#9ED9B4" opacity="0.16"/>
<path d="M1655 1217 C 1603 1247, 1611 1319, 1677 1329 C 1635 1359, 1549 1315, 1565 1243 C 1579 1183, 1635 1165, 1655 1217 Z" fill="#9CC7F2" opacity="0.18"/>
<circle cx="2056" cy="1912" r="34" fill="#F8D85E" opacity="0.16"/>
<circle cx="2094" cy="1892" r="44" fill="#F8D85E" opacity="0.16"/>
<circle cx="2138" cy="1916" r="30" fill="#F8D85E" opacity="0.16"/>
<rect x="2024" y="1912" width="138" height="34" rx="17" fill="#F8D85E" opacity="0.16"/>
<circle cx="123" cy="153" r="34" fill="#9ED9B4" opacity="0.16"/>
<circle cx="161" cy="133" r="44" fill="#9ED9B4" opacity="0.16"/>
<circle cx="205" cy="157" r="30" fill="#9ED9B4" opacity="0.16"/>
<rect x="91" y="153" width="138" height="34" rx="17" fill="#9ED9B4" opacity="0.16"/>
<path d="M656 740 C 604 770, 612 842, 678 852 C 636 882, 550 838, 566 766 C 580 706, 636 688, 656 740 Z" fill="#9CC7F2" opacity="0.18"/>
<circle cx="1057" cy="1435" r="34" fill="#F8D85E" opacity="0.16"/>
<circle cx="1095" cy="1415" r="44" fill="#F8D85E" opacity="0.16"/>
<circle cx="1139" cy="1439" r="30" fill="#F8D85E" opacity="0.16"/>
<rect x="1025" y="1435" width="138" height="34" rx="17" fill="#F8D85E" opacity="0.16"/>
</svg>