<svg xmlns="http://www.w3.org/2000/svg" viewBox="0 0 2400 2400" width="2400" height="2400">
<rect width="2400" height="2400" fill="#FFF8EC"/>
<ellipse cx="180" cy="240" rx="34" ry="44" fill="#7ECBEA" opacity="0.19"/>
<path d="M180 284 l-10 18 h20 Z" fill="#7ECBEA" opacity="0.19"/>
<ellipse cx="601" cy="811" rx="45" ry="56" fill="#F06D8D" opacity="0.19"/>
<path d="M601 867 l-10 18 h20 Z" fill="#F06D8D" opacity="0.19"/>
<ellipse cx="1022" cy="1382" rx="56" ry="68" fill="#F6D365" opacity="0.19"/>
<path d="M1022 1450 l-10 18 h20 Z" fill="#F6D365" opacity="0.19"/>
<ellipse cx="1443" cy="1953" rx="67" ry="44" fill="#8BD7B5" opacity="0.19"/>
<path d="M1443 1997 l-10 18 h20 Z" fill="#8BD7B5" opacity="0.19"/>
<ellipse cx="1864" cy="124" rx="34" ry="56" fill="#7ECBEA" opacity="0.19"/>
<path d="M1864 180 l-10 18 h20 Z" fill="#7ECBEA" opacity="0.19"/>
<ellipse cx="2285" cy="695" rx="45" ry="68" fill="#F06D8D" opacity="0.19"/>
<path d="M2285 763 l-10 18 h20 Z" fill="#F06D8D" opacity="0.19"/>
<ellipse cx="306" cy="1266" rx="56" ry="44" fill="#F6D365" opacity="0.19"/>
<path d="M306 1310 l-10 18 h20 Z" fill="#F6D365" opacity="0.19"/>
<ellipse cx="727" cy="1837" rx="67" ry="56" fill="#8BD7B5" opacity="0.19"/>
<path d="M727 1893 l-10 18 h20 Z" fill="#8BD7B5" opacity="0.19"/>
<ellipse cx="1148" cy="8" rx="34" ry="68" fill="#7ECBEA" opacity="0.19"/>
<path d="M1148 76 l-10 18 h20 Z" fill="#7ECBEA" opacity="0.19"/>
<ellipse cx="1569" cy="579" rx="45" ry="44" fill="#F06D8D" opacity="0.19"/>
<path d="M1569 623 l-10 18 h20 Z" fill="#F06D8D" opacity="0.19"/>
<ellipse cx="1990" cy="1150" rx="56" ry="56" fill="#F6D365" opacity="0.19"/>
<path d="M1990 1206 l-10 18 h20 Z" fill="#F6D365" opacity="0.19"/>
<ellipse cx="11" cy="1721" rx="67" ry="68" fill="#8BD7B5" opacity="0.19"/>
<path d="M11 1789 l-10 18 h20 Z" fill="#8BD7B5" opacity="0.19"/>
<ellipse cx="432" cy="2292" rx="34" ry="44" fill="#7ECBEA" opacity="0.19"/>
<path d="M432 2336 l-10 18 h20 Z" fill="#7ECBEA" opacity="0.19"/>
<ellipse cx="853" cy="463" rx="45" ry="56" fill="#F06D8D" opacity="0.19"/>
<path d="M853 519 l-10 18 h20 Z" fill="#F06D8D" opacity="0.19"/>
<ellipse cx="1274" cy="1034" rx="56" ry="68" fill="#F6D365" opacity="0.19"/>
<path d="M1274 1102 l-10 18 h20 Z" fill="#F6D365" opacity="0.19"/>
<ellipse cx="1695" cy="1605" rx="67" ry="44" fill="#8BD7B5" opacity="0.19"/>
<path d="M1695 1649 l-10 18 h20 Z" fill="#8BD7B5" opacity="0.19"/>
<ellipse cx="2116" cy="2176" rx="34" ry="56" fill="#7ECBEA" opacity="0.19"/>
<path d="M2116 2232 l-10 18 h20 Z" fill="#7ECBEA" opacity="0.19"/>
<ellipse cx="137" cy="347" rx="45" ry="68" fill="#F06D8D" opacity="0.19"/>
<path d="M137 415 l-10 18 h20 Z" fill="#F06D8D" opacity="0.19"/>
<ellipse cx="558" cy="918" rx="56" ry="44" fill="#F6D365" opacity="0.19"/>
<path d="M558 962 l-10 18 h20 Z" fill="#F6D365" opacity="0.19"/>
<ellipse cx="979" cy="1489" rx="67" ry="56" fill="#8BD7B5" opacity="0.19"/>
<path d="M979 1545 l-10 18 h20 Z" fill="#8BD7B5" opacity="0.19"/>
<ellipse cx="1400" cy="2060" rx="34" ry="68" fill="#7ECBEA" opacity="0.19"/>
<path d="M1400 2128 l-10 18 h20 Z" fill="#7ECBEA" opacity="0.19"/>
<ellipse cx="1821" cy="231" rx="45" ry="44" fill="#F06D8D" opacity="0.19"/>
<path d="M1821 275 l-10 18 h20 Z" fill="#F06D8D" opacity="0.19"/>
<ellipse cx="2242" cy="802" rx="56" ry="56" fill="#F6D365" opacity="0.19"/>
<path d="M2242 858 l-10 18 h20 Z" fill="#F6D365" opacity="0.19"/>
<ellipse cx="263" cy="1373" rx="67" ry="68" fill="#8BD7B5" opacity="0.19"/>
<path d="M263 1441 l-10 18 h20 Z" fill="#8BD7B5" opacity="0.19"/>
<ellipse cx="684" cy="1944" rx="34" ry="44" fill="#7ECBEA" opacity="0.19"/>
<path d="M684 1988 l-10 18 h20 Z" fill="#7ECBEA" opacity="0.19"/>
<ellipse cx="1105" cy="115" rx="45" ry="56" fill="#F06D8D" opacity="0.19"/>
<path d="M1105 171 l-10 18 h20 Z" fill="#F06D8D" opacity="0.19"/>
<ellipse cx="1526" cy="686" rx="56" ry="68" fill="#F6D365" opacity="0.19"/>
<path d="M1526 754 l-10 18 h20 Z" fill="#F6D365" opacity="0.19"/>
<ellipse cx="1947" cy="1257" rx="67" ry="44" fill="#8BD7B5" opacity="0.19"/>
<path d="M1947 1301 l-10 18 h20 Z" fill="#8BD7B5" opacity="0.19"/>
<ellipse cx="2368" cy="1828" rx="34" ry="56" fill="#7ECBEA" opacity="0.19"/>
<path d="M2368 1884 l-10 18 h20 Z" fill="#7ECBEA" opacity="0.19"/>
<ellipse cx="389" cy="2399" rx="45" ry="68" fill="#F06D8D" opacity="0.19"/>
<path d="M389 2467 l-10 18 h20 Z" fill="#F06D8D" opacity="0.19"/>
<ellipse cx="810" cy="570" rx="56" ry="44" fill="#F6D365" opacity="0.19"/>
<path d="M810 614 l-10 18 h20 Z" fill="#F6D365" opacity="0.19"/>
<ellipse cx="1231" cy="1141" rx="67" ry="56" fill="#8BD7B5" opacity="0.19"/>
<path d="M1231 1197 l-10 18 h20 Z" fill="#8BD7B5" opacity="0.19"/>
<ellipse cx="1652" cy="1712" rx="34" ry="68" fill="#7ECBEA" opacity="0.19"/>
<path d="M1652 1780 l-10 18 h20 Z" fill="#7ECBEA" opacity="0.19"/>
<ellipse cx="2073" cy="2283" rx="45" ry="44" fill="#F06D8D" opacity="0.19"/>
<path d="M2073 2327 l-10 18 h20 Z" fill="#F06D8D" opacity="0.19"/>
<ellipse cx="94" cy="454" rx="56" ry="56" fill="#F6D365" opacity="0.19"/>
<path d="M94 510 l-10 18 h20 Z" fill="#F6D365" opacity="0.19"/>
<ellipse cx="515" cy="1025" rx="67" ry="68" fill="#8BD7B5" opacity="0.19"/>
<path d="M515 1093 l-10 18 h20 Z" fill="#8BD7B5" opacity="0.19"/>
<ellipse cx="936" cy="1596" rx="34" ry="44" fill="#7ECBEA" opacity="0.19"/>
<path d="M936 1640 l-10 18 h20 Z" fill="#7ECBEA" opacity="0.19"/>
<ellipse cx="1357" cy="2167" rx="45" ry="56" fill="#F06D8D" opacity="0.19"/>
<path d="M1357 2223 l-10 18 h20 Z" fill="#F06D8D" opacity="0.19"/>
<ellipse cx="1778" cy="338" rx="56" ry="68" fill="#F6D365" opacity="0.19"/>
<path d="M1778 406 l-10 18 h20 Z" fill="#F6D365" opacity="0.19"/>
<ellipse cx="2199" cy="909" rx="67" ry="44" fill="#8BD7B5" opacity="0.19"/>
<path d="M2199 953 l-10 18 h20 Z" fill="#8BD7B5" opacity="0.19"/>
<ellipse cx="220" cy="1480" rx="34" ry="56" fill="#7ECBEA" opacity="0.19"/>
<path d="M220 1536 l-10 18 h20 Z" fill="#7ECBEA" opacity="0.19"/>
<ellipse cx="641" cy="2051" rx="45" ry="68" fill="#F06D8D" opacity="0.19"/>
<path d="M641 2119 l-10 18 h20 Z" fill="#F06D8D" opacity="0.19"/>
<ellipse cx="1062" cy="222" rx="56" ry="44" fill="#F6D365" opacity="0.19"/>
<path d="M1062 266 l-10 18 h20 Z" fill="#F6D365" opacity="0.19"/>
<ellipse cx="1483" cy="793" rx="67" ry="56" fill="#8BD7B5" opacity="0.19"/>
<path d="M1483 849 l-10 18 h20 Z" fill="#8BD7B5" opacity="0.19"/>
<ellipse cx="1904" cy="1364" rx="34" ry="68" fill="#7ECBEA" opacity="0.19"/>
<path d="M1904 1432 l-10 18 h20 Z" fill="#7ECBEA" opacity="0.19"/>
<ellipse cx="2325" cy="1935" rx="45" ry="44" fill="#F06D8D" opacity="0.19"/>
<path d="M2325 1979 l-10 18 h20 Z" fill="#F06D8D" opacity="0.19"/>
<ellipse cx="346" cy="106" rx="56" ry="56" fill="#F6D365" opacity="0.19"/>
<path d="M346 162 l-10 18 h20 Z" fill="#F6D365" opacity="0.19"/>
<ellipse cx="767" cy="677" rx="67" ry="68" fill="#8BD7B5" opacity="0.19"/>
<path d="M767 745 l-10 18 h20 Z" fill="#8BD7B5" opacity="0.19"/>
<ellipse cx="1188" cy="1248" rx="34" ry="44" fill="#7ECBEA" opacity="0.19"/>
<path d="M1188 1292 l-10 18 h20 Z" fill="#7ECBEA" opacity="0.19"/>
<ellipse cx="1609" cy="1819" rx="45" ry="56" fill="#F06D8D" opacity="0.19"/>
<path d="M1609 1875 l-10 18 h20 Z" fill="#F06D8D" opacity="0.19"/>
<ellipse cx="2030" cy="2390" rx="56" ry="68" fill="#F6D365" opacity="0.19"/>
<path d="M2030 2458 l-10 18 h20 Z" fill="#F6D365" opacity="0.19"/>
<ellipse cx="51" cy="561" rx="67" ry="44" fill="#8BD7B5" opacity="0.19"/>
<path d="M51 605 l-10 18 h20 Z" fill="#8BD7B5" opacity="0.19"/>
<ellipse cx="472" cy="1132" rx="34" ry="56" fill="#7ECBEA" opacity="0.19"/>
<path d="M472 1188 l-10 18 h20 Z" fill="#7ECBEA" opacity="0.19"/>
<ellipse cx="893" cy="1703" rx="45" ry="68" fill="#F06D8D" opacity="0.19"/>
<path d="M893 1771 l-10 18 h20 Z" fill="#F06D8D" opacity="0.19"/>
<ellipse cx="1314" cy="2274" rx="56" ry="44" fill="#F6D365" opacity="0.19"/>
<path d="M1314 2318 l-10 18 h20 Z" fill="#F6D365" opacity="0.19"/>
<ellipse cx="1735" cy="445" rx="67" ry="56" fill="#8BD7B5" opacity="0.19"/>
<path d="M1735 501 l-10 18 h20 Z" fill="#8BD7B5" opacity="0.19"/>
<ellipse cx="2156" cy="1016" rx="34" ry="68" fill="#7ECBEA" opacity="0.19"/>
<path d="M2156 1084 l-10 18 h20 Z" fill="#7ECBEA" opacity="0.19"/>
<ellipse cx="177" cy="1587" rx="45" ry="44" fill="#F06D8D" opacity="0.19"/>
<path d="M177 1631 l-10 18 h20 Z" fill="#F06D8D" opacity="0.19"/>
</svg>